<?xml version="1.0" standalone="no"?>
<!DOCTYPE svg PUBLIC "-//W3C//DTD SVG 20010904//EN"
 "http://www.w3.org/TR/2001/REC-SVG-20010904/DTD/svg10.dtd">
<svg version="1.0" xmlns="http://www.w3.org/2000/svg"
 width="260.000000pt" height="260.000000pt" viewBox="0 0 260.000000 260.000000"
 preserveAspectRatio="xMidYMid meet">
<metadata>
Created by potrace 1.14, written by Peter Selinger 2001-2017
</metadata>
<g transform="translate(0.000000,260.000000) scale(0.100000,-0.100000)"
fill="#000000" stroke="none">
<path d="M168 2590 c-2 -5 -10 -10 -18 -12 -15 -3 -39 -27 -40 -40 0 -4 12
-20 28 -37 22 -24 33 -29 56 -25 31 5 66 -3 66 -16 0 -5 -11 -7 -24 -4 -50 9
-40 -62 12 -85 20 -10 25 -9 29 8 4 17 11 19 43 15 35 -5 38 -4 33 15 -3 12
-1 21 6 21 9 0 9 5 1 20 -6 10 -16 17 -24 14 -7 -3 -16 2 -19 10 -7 19 1 46
14 46 5 0 12 8 16 18 3 9 15 27 26 40 l21 22 -112 -1 c-61 0 -112 -4 -114 -9z"/>
<path d="M620 2582 c0 -10 -16 -36 -35 -57 -25 -29 -34 -48 -33 -71 2 -44 -19
-89 -47 -104 -23 -12 -53 -66 -47 -83 1 -5 -9 -18 -23 -29 -15 -11 -25 -30
-25 -44 0 -38 -22 -54 -63 -47 -29 4 -36 2 -41 -15 -4 -12 -13 -19 -20 -16
-21 8 -56 -36 -56 -68 0 -16 9 -36 20 -45 24 -21 26 -39 4 -51 -15 -8 -14 -12
6 -32 l23 -23 -23 -19 c-13 -10 -29 -17 -37 -14 -18 7 -56 -8 -87 -35 -49 -43
-42 -115 14 -144 17 -9 28 -21 24 -27 -4 -6 -1 -9 7 -6 8 3 30 -18 54 -51 21
-31 51 -65 65 -76 13 -11 33 -28 43 -39 14 -13 22 -15 30 -7 6 6 19 11 29 11
15 0 17 -5 12 -26 -5 -18 -3 -25 7 -24 40 6 49 0 43 -25 -4 -16 -2 -25 6 -25
7 0 10 -8 7 -20 -3 -13 0 -20 9 -20 8 0 14 -5 14 -11 0 -5 4 -8 9 -5 10 6 26
-34 30 -71 0 -7 8 -13 16 -13 18 0 20 -21 3 -38 -9 -9 -9 -12 0 -12 7 0 12 -4
12 -9 0 -6 -14 -5 -35 0 -19 6 -40 7 -45 4 -6 -3 -10 1 -10 11 0 12 7 15 30
12 46 -7 35 22 -19 48 -24 12 -50 32 -57 45 -7 13 -13 20 -14 15 0 -6 -6 -3
-12 6 -7 9 -23 19 -34 22 -20 6 -21 4 -17 -37 5 -45 -5 -63 -71 -127 -24 -24
-32 -27 -60 -19 -41 12 -39 12 -65 -10 -21 -18 -21 -20 -4 -29 13 -8 22 -7 35
5 15 14 16 13 11 -8 -5 -19 -3 -21 15 -17 13 4 23 0 26 -8 3 -8 -1 -14 -9 -14
-8 0 -15 -7 -15 -15 0 -8 5 -15 11 -15 5 0 15 -13 20 -30 13 -35 22 -37 80
-10 61 27 132 27 151 -2 11 -17 26 -22 69 -24 30 -1 65 -4 79 -6 24 -3 25 -1
28 56 l3 59 30 -32 c16 -18 35 -31 42 -29 14 5 55 156 56 206 1 41 -26 138
-47 170 -15 24 -66 55 -74 46 -3 -2 -10 2 -17 9 -9 11 -22 12 -59 6 -26 -5
-54 -12 -62 -16 -37 -15 -40 -12 -32 30 7 44 9 139 3 242 -5 94 12 243 31 280
11 19 11 19 20 0 6 -16 7 -14 4 10 -2 17 -5 37 -8 45 -3 8 -3 12 -1 8 9 -16
21 -7 32 22 5 17 15 30 20 30 6 0 15 19 21 42 7 23 22 50 35 60 13 10 27 27
30 38 4 11 11 20 16 20 6 0 7 -4 4 -10 -3 -5 -2 -10 4 -10 5 0 13 5 16 11 4 6
14 8 22 4 13 -4 13 -3 4 8 -9 11 -7 17 6 28 12 11 17 11 20 2 5 -14 39 1 60
27 9 10 12 11 13 3 0 -21 18 -15 25 8 5 14 2 25 -6 30 -11 8 -10 12 6 21 11 7
26 13 33 14 30 5 43 14 36 26 -5 8 -2 9 10 5 10 -4 15 -3 11 3 -6 10 8 17 72
37 34 12 83 6 83 -9 0 -5 4 -7 8 -4 5 3 28 -4 51 -16 34 -17 41 -24 36 -42 -5
-17 -4 -18 4 -6 7 10 11 11 11 3 0 -7 6 -13 14 -13 18 0 61 -117 57 -154 -1
-16 -12 -42 -24 -57 -24 -33 -39 -123 -23 -140 8 -7 7 -10 -4 -7 -11 2 -14 -5
-11 -30 3 -42 23 -80 39 -74 17 5 15 -23 -3 -42 -18 -17 -20 -66 -4 -66 7 0
18 -8 26 -17 8 -10 11 -12 7 -4 -5 11 -3 13 10 8 10 -4 28 -7 41 -7 14 0 33
-9 43 -20 12 -13 25 -18 35 -14 11 4 19 0 23 -10 3 -9 9 -14 13 -12 4 3 13 1
21 -4 11 -7 6 -9 -15 -7 -23 1 -30 -2 -29 -16 1 -10 -7 -19 -20 -22 -39 -9
-135 -11 -130 -3 3 4 1 8 -5 8 -6 0 -13 -11 -17 -25 -4 -14 -8 -24 -11 -22 -4
5 -57 -43 -59 -53 -3 -18 -18 -40 -26 -40 -6 0 -6 6 1 14 8 10 9 16 1 21 -5 3
-10 1 -10 -4 0 -6 -5 -11 -10 -11 -6 0 -9 12 -8 28 2 20 -1 26 -12 23 -8 -1
-24 -4 -35 -6 -18 -3 -87 -26 -125 -42 -8 -3 -20 -7 -27 -9 -21 -4 -108 -49
-115 -59 -5 -6 -8 -4 -8 5 0 11 -3 11 -12 2 -7 -7 -11 -43 -11 -92 1 -75 3
-82 32 -115 17 -20 31 -45 31 -55 0 -32 1 -34 16 -51 12 -14 13 -24 3 -64 -9
-37 -9 -49 1 -55 9 -6 8 -10 -5 -17 -13 -7 -14 -12 -6 -18 9 -5 8 -12 -4 -25
-9 -10 -19 -32 -21 -49 -4 -25 -2 -31 13 -31 11 0 24 -5 31 -12 8 -8 15 -8 24
0 9 7 18 7 31 -3 10 -7 28 -12 40 -9 27 4 42 -5 51 -32 5 -17 2 -23 -16 -28
-34 -9 -108 -7 -108 3 0 4 -11 6 -25 3 -14 -2 -31 0 -38 6 -8 7 -27 3 -62 -14
-91 -45 -104 -54 -98 -70 6 -17 58 -45 118 -64 55 -17 64 -27 71 -71 6 -34 15
-46 27 -36 2 1 10 -3 18 -9 8 -6 29 -12 48 -12 19 0 37 -6 41 -13 6 -8 9 -8
13 2 3 8 6 2 6 -12 1 -22 -3 -26 -23 -22 -13 3 -36 -3 -50 -12 -18 -12 -37
-16 -61 -12 -33 5 -35 4 -35 -24 0 -39 47 -104 65 -89 7 6 23 8 36 6 13 -3 34
-5 47 -5 17 -1 22 -7 22 -26 0 -29 -22 -41 -79 -44 -17 -1 4 -36 68 -108 37
-42 47 -49 56 -36 8 11 25 13 75 9 81 -6 79 -6 53 -16 -13 -5 -23 -14 -23 -20
0 -6 5 -8 10 -5 6 3 10 1 10 -5 0 -6 5 -8 11 -4 8 4 8 0 0 -15 -15 -27 -91
-30 -117 -4 -16 16 -17 16 -11 1 4 -12 0 -18 -16 -21 -19 -4 -18 -4 4 -6 15 0
29 -7 32 -15 5 -11 0 -12 -26 -3 -18 5 -38 12 -45 13 -7 2 -10 8 -7 14 4 6
-12 9 -42 9 l-48 -2 40 -7 40 -6 -35 -6 c-34 -5 -34 -5 -10 -14 l25 -8 -30 -7
c-16 -4 -56 -7 -88 -8 -37 -1 -64 -6 -73 -16 -14 -13 -9 -15 43 -15 32 0 76
-3 98 -6 26 -4 35 -2 27 4 -11 7 -10 10 3 16 24 9 27 8 19 -6 -5 -10 -4 -10 5
-2 8 8 24 9 44 3 18 -4 45 -11 60 -14 31 -6 27 -24 -6 -26 -20 -1 -20 -2 3 -9
14 -4 21 -9 15 -10 -5 -1 -20 -3 -32 -6 -12 -2 -25 1 -28 6 -3 6 -25 9 -48 9
-33 -1 -36 -3 -17 -8 14 -3 -27 -8 -90 -12 -63 -3 291 -6 788 -7 l902 -2 0
1300 0 1300 -990 0 c-950 0 -990 -1 -990 -18z m780 -252 c0 -5 -2 -10 -4 -10
-3 0 -8 5 -11 10 -3 6 -1 10 4 10 6 0 11 -4 11 -10z m-839 -213 c-13 -13 -15
1 -4 30 7 17 8 17 11 -1 2 -10 -1 -23 -7 -29z m1506 -1 c-3 -7 0 -19 6 -25 14
-14 -8 -14 -38 -1 -19 9 -19 9 2 16 13 3 20 10 17 15 -3 5 0 9 6 9 7 0 10 -6
7 -14z m-462 -55 c-3 -6 -11 -11 -16 -11 -5 0 -4 6 3 14 14 16 24 13 13 -3z
m-1295 -190 c0 -18 -18 -21 -30 -6 -10 13 -9 15 9 15 11 0 21 -4 21 -9z m-110
-40 c0 -5 -7 -11 -15 -15 -9 -3 -15 0 -15 9 0 8 7 15 15 15 8 0 15 -4 15 -9z
m1080 -184 c0 -2 -18 -18 -40 -36 -38 -30 -39 -30 -29 -7 6 13 21 29 33 34 22
11 36 14 36 9z m487 -259 c-3 -7 -5 -2 -5 12 0 14 2 19 5 13 2 -7 2 -19 0 -25z
m-1163 -38 c36 0 72 -51 71 -100 0 -33 -4 -45 -20 -51 -36 -14 -48 -10 -42 12
4 16 2 19 -10 15 -13 -6 -14 -4 -3 9 10 12 10 15 1 13 -7 -2 -21 23 -33 60
-12 35 -27 62 -34 62 -8 0 -14 9 -14 19 0 17 4 15 31 -10 17 -16 41 -29 53
-29z m1196 36 c0 -3 -4 -8 -10 -11 -5 -3 -10 -1 -10 4 0 6 5 11 10 11 6 0 10
-2 10 -4z m-38 -46 c-5 -36 -17 -47 -19 -17 -2 17 12 47 21 47 2 0 1 -14 -2
-30z m58 -14 c0 -3 -4 -8 -10 -11 -5 -3 -10 -1 -10 4 0 6 5 11 10 11 6 0 10
-2 10 -4z m-190 -56 c-16 -40 -23 -33 -9 9 6 18 14 30 17 27 2 -3 -1 -19 -8
-36z m-463 -2 c-3 -8 -6 -5 -6 6 -1 11 2 17 5 13 3 -3 4 -12 1 -19z m-117 -10
c0 -9 4 -8 10 2 8 13 10 12 10 -2 0 -10 5 -18 11 -18 8 0 7 -6 -2 -17 -13 -17
-13 -17 13 -1 26 17 27 17 33 -13 4 -17 9 -28 12 -25 4 3 12 -2 20 -12 8 -9
12 -11 8 -4 -3 6 -1 12 5 12 6 0 16 -11 22 -25 6 -14 18 -25 26 -25 12 0 9 7
-9 27 -13 15 -27 30 -31 33 -8 6 -22 60 -16 60 3 0 13 -10 24 -22 10 -12 13
-18 5 -13 -7 4 -3 -6 10 -24 25 -35 30 -36 47 -19 9 9 12 9 12 0 0 -7 -5 -12
-11 -12 -8 0 -8 -4 0 -14 10 -11 8 -17 -6 -25 -17 -10 -16 -10 3 -11 12 0 24
-7 28 -15 3 -8 11 -15 18 -15 13 0 85 -59 81 -66 -10 -15 -1 -35 13 -30 8 3
12 2 9 -4 -3 -6 -1 -10 4 -10 6 0 9 -14 7 -32 -2 -18 -9 -33 -16 -33 -6 0 -18
-13 -25 -30 -10 -22 -14 -25 -14 -11 -1 19 -1 19 -14 1 -8 -10 -19 -15 -25
-11 -8 5 -12 -2 -12 -18 0 -26 -14 -35 -25 -16 -4 6 -11 8 -16 5 -5 -4 -9 -1
-9 6 0 10 -3 10 -12 1 -17 -17 -45 -15 -52 4 -3 8 -10 12 -16 9 -12 -7 -17 5
-24 60 -3 22 -12 67 -21 100 -14 57 -15 58 -11 15 4 -44 4 -45 -9 -15 -7 17
-19 30 -26 30 -7 0 -14 6 -16 13 -3 7 5 12 19 12 22 1 22 1 4 12 -15 8 -21 8
-24 0 -5 -17 -48 -15 -67 4 -16 17 -16 50 1 47 5 0 15 6 23 14 12 13 11 14
-10 8 -13 -4 -30 -12 -36 -17 -10 -8 -13 -5 -13 11 0 13 9 25 23 31 12 5 16 9
10 9 -9 1 -8 10 4 36 12 24 19 31 25 23 5 -9 8 -6 8 10 0 22 20 32 20 10z
m685 2 c3 -6 -1 -7 -9 -4 -18 7 -21 14 -7 14 6 0 13 -4 16 -10z m-1283 -89
l18 -43 -27 5 c-15 3 -35 1 -45 -4 -12 -7 -20 -5 -26 7 -6 11 -17 15 -31 11
-14 -3 -21 0 -21 9 0 8 -6 11 -15 8 -23 -9 -18 4 6 17 15 8 19 8 15 0 -4 -6
-2 -11 4 -11 6 0 13 7 16 15 4 8 10 12 15 9 5 -3 16 2 25 11 25 25 45 14 66
-34z m1233 11 c-3 -3 -11 0 -18 7 -9 10 -8 11 6 5 10 -3 15 -9 12 -12z m-111
-31 c-3 -3 -17 -6 -32 -7 -15 -1 -36 -6 -46 -10 -13 -5 -17 -4 -12 4 5 8 -3
10 -26 6 l-33 -5 35 17 c58 27 93 32 107 15 6 -9 9 -18 7 -20z m95 16 c-2 -1
-15 -11 -28 -22 l-24 -20 12 23 c6 12 19 22 28 22 9 0 14 -1 12 -3z m-59 -27
c0 -5 -2 -10 -4 -10 -3 0 -8 5 -11 10 -3 6 -1 10 4 10 6 0 11 -4 11 -10z
m-290 -6 c0 -8 -19 -13 -24 -6 -3 5 1 9 9 9 8 0 15 -2 15 -3z m0 -36 c0 -12
-25 -9 -38 4 -20 20 -14 27 13 15 14 -7 25 -15 25 -19z m-953 -4 c-3 -3 -12
-4 -19 -1 -8 3 -5 6 6 6 11 1 17 -2 13 -5z m1209 -24 c28 0 33 -14 24 -70 -9
-53 -16 -44 -19 22 -1 25 -4 29 -13 20 -14 -14 -42 -16 -34 -3 3 5 0 9 -7 8
-36 -1 -57 4 -52 13 3 6 17 10 31 10 13 0 24 5 24 12 0 9 3 9 12 0 7 -7 22
-12 34 -12z m-124 -410 c3 -16 1 -30 -3 -30 -4 0 -9 15 -11 34 -5 42 8 38 14
-4z m-452 -20 c0 -5 -4 -10 -10 -10 -5 0 -10 5 -10 10 0 6 5 10 10 10 6 0 10
-4 10 -10z m504 -15 c-4 -8 -8 -15 -10 -15 -2 0 -4 7 -4 15 0 8 4 15 10 15 5
0 7 -7 4 -15z m-410 -40 c4 -11 -1 -15 -19 -15 -16 0 -25 6 -25 15 0 8 9 15
19 15 10 0 21 -7 25 -15z m46 -6 c0 -6 -4 -7 -10 -4 -5 3 -10 11 -10 16 0 6 5
7 10 4 6 -3 10 -11 10 -16z m-30 -133 c0 -2 -8 -10 -17 -17 -16 -13 -17 -12
-4 4 13 16 21 21 21 13z m-40 -16 c0 -5 -4 -10 -10 -10 -5 0 -10 5 -10 10 0 6
5 10 10 10 6 0 10 -4 10 -10z m946 -125 c4 -8 10 -12 15 -9 5 3 9 -2 9 -10 0
-9 -3 -15 -7 -15 -20 3 -24 -2 -14 -15 7 -8 21 -12 33 -8 17 4 20 2 15 -12 -6
-14 -3 -15 13 -6 12 6 20 7 20 1 0 -5 -6 -12 -12 -14 -14 -6 24 -10 60 -7 29
2 28 -10 -4 -33 -27 -20 -47 -23 -226 -32 -111 -5 -150 2 -114 22 9 5 -2 8
-32 9 -126 2 -213 44 -92 44 38 0 59 -4 55 -10 -3 -5 -2 -10 4 -10 5 0 13 5
16 10 4 7 24 8 52 4 29 -4 44 -3 40 3 -4 6 4 19 18 31 20 17 26 18 41 8 10 -7
26 -11 36 -8 12 3 18 -1 18 -12 0 -9 6 -13 14 -10 7 3 13 15 12 27 -1 16 -8
23 -28 25 -25 3 -26 4 -10 22 21 22 61 25 68 5z m109 -25 c3 -5 2 -10 -4 -10
-5 0 -18 -3 -28 -7 -16 -6 -16 -5 -4 10 15 19 27 22 36 7z m-698 -57 c-4 -3 1
-12 11 -19 15 -12 13 -13 -18 -14 -19 0 -45 -3 -57 -6 -41 -11 -24 14 20 29
50 18 52 19 44 10z"/>
<path d="M1910 190 c0 -5 7 -10 16 -10 8 0 12 5 9 10 -3 6 -10 10 -16 10 -5 0
-9 -4 -9 -10z"/>
<path d="M981 1804 c0 -12 -8 -40 -16 -63 -8 -22 -11 -41 -7 -41 11 0 34 86
29 107 -4 15 -5 15 -6 -3z"/>
<path d="M850 1792 c0 -13 4 -20 10 -17 6 3 10 2 10 -4 0 -6 7 -8 16 -4 14 5
14 7 -2 16 -11 6 -22 15 -26 21 -4 6 -8 1 -8 -12z"/>
<path d="M905 1760 c-10 -17 5 -50 23 -50 14 0 14 2 3 9 -8 5 -11 16 -8 25 7
18 -8 32 -18 16z"/>
<path d="M735 1690 c3 -5 10 -10 16 -10 5 0 9 5 9 10 0 6 -7 10 -16 10 -8 0
-12 -4 -9 -10z"/>
<path d="M105 1130 c-3 -5 -2 -10 4 -10 5 0 13 5 16 10 3 6 2 10 -4 10 -5 0
-13 -4 -16 -10z"/>
<path d="M112 746 c-1 -19 5 -39 13 -46 10 -8 15 -9 15 -2 0 6 -4 14 -10 17
-15 9 -12 19 11 33 19 12 20 11 14 -7 -3 -10 -1 -22 5 -26 5 -3 10 0 11 7 0 7
2 20 4 29 2 11 -4 16 -19 15 -11 -1 -26 1 -32 6 -7 5 -11 -4 -12 -26z"/>
<path d="M16 381 c-4 -5 -2 -20 3 -33 6 -12 10 -18 10 -11 1 6 10 9 21 6 25
-7 26 9 2 30 -21 19 -28 21 -36 8z"/>
<path d="M134 288 c-4 -6 -2 -8 3 -5 6 4 21 -2 33 -13 25 -22 38 -24 58 -11
11 6 10 9 -5 14 -10 3 -33 10 -50 15 -23 7 -35 7 -39 0z"/>
<path d="M343 253 c9 -2 25 -2 35 0 9 3 1 5 -18 5 -19 0 -27 -2 -17 -5z"/>
<path d="M638 143 c7 -3 16 -2 19 1 4 3 -2 6 -13 5 -11 0 -14 -3 -6 -6z"/>
<path d="M538 133 c6 -2 18 -2 25 0 6 3 1 5 -13 5 -14 0 -19 -2 -12 -5z"/>
<path d="M588 133 c7 -3 16 -2 19 1 4 3 -2 6 -13 5 -11 0 -14 -3 -6 -6z"/>
<path d="M248 113 c7 -3 16 -2 19 1 4 3 -2 6 -13 5 -11 0 -14 -3 -6 -6z"/>
<path d="M150 90 c-12 -8 -12 -10 5 -11 17 -1 16 -2 -5 -9 -41 -13 -54 -12
-41 4 10 11 4 12 -36 4 -27 -6 -54 -10 -60 -11 -7 0 -13 -8 -13 -18 0 -13 6
-16 21 -12 18 5 20 3 15 -15 -7 -20 -5 -20 361 -21 315 0 365 2 350 14 -18 13
-17 14 5 19 13 2 -12 3 -56 0 -65 -4 -78 -2 -73 10 5 11 -6 14 -51 14 -78 -1
-149 12 -131 23 8 5 -8 6 -41 3 -40 -4 -51 -3 -40 5 11 8 4 10 -30 9 -29 -1
-35 -2 -17 -5 49 -8 28 -18 -29 -14 -38 2 -52 6 -43 12 9 6 -1 9 -31 9 -25 0
-52 -5 -60 -10z m87 -36 c-3 -3 -12 -4 -19 -1 -8 3 -5 6 6 6 11 1 17 -2 13 -5z
m160 -20 c-3 -3 -12 -4 -19 -1 -8 3 -5 6 6 6 11 1 17 -2 13 -5z m-303 -12 c3
-5 -8 -8 -24 -8 -16 0 -27 3 -24 8 3 4 14 8 24 8 10 0 21 -4 24 -8z"/>
</g>
</svg>
